<svg width="35" height="33" viewBox="0 0 35 33" fill="none" xmlns="http://www.w3.org/2000/svg">
<path d="M17.4999 17.8986C16.6524 17.8986 15.7897 17.1959 15.7897 15.8586L15.9806 5.15274L10.4529 10.4264C10.3842 10.4868 10.3002 10.5321 10.2086 10.5472C10.033 10.5775 9.86504 10.5095 9.75815 10.3735L9.75051 10.3659C9.67416 10.2677 9.64363 10.1468 9.6589 10.0335L10.0025 7.28334L10.0406 7.16245L10.117 7.04157L16.2554 0.755533L16.6906 0.324879C16.9273 0.11333 17.2098 0 17.4999 0C17.7824 0 18.0649 0.11333 18.2939 0.309768L18.7367 0.747978L24.8828 7.04157L24.9515 7.13979L24.9973 7.27578L25.3485 10.0184C25.3638 10.1166 25.3409 10.2224 25.2874 10.3055C25.1958 10.4641 25.0202 10.5548 24.837 10.5321H24.8217C24.7148 10.5246 24.6156 10.4792 24.5392 10.4037L19.0269 5.14518L19.2177 15.8435C19.2101 17.1959 18.355 17.8986 17.4999 17.8986ZM10.0177 32.4879L1.43616 30.3724L0.840641 30.2138C0.535246 30.1155 0.298566 29.9267 0.153504 29.6849C0.00844167 29.4431 -0.0373673 29.1409 0.0313463 28.8538L0.191678 28.2569L2.63483 19.8479L2.68064 19.7421L2.77989 19.6287L5.00927 17.959C5.08562 17.8986 5.18487 17.8684 5.28412 17.8684C5.46736 17.8684 5.63533 17.9741 5.71168 18.1403L5.71931 18.163C5.76512 18.2612 5.77276 18.367 5.74985 18.4652L3.90985 25.8166L13.1938 20.3012C13.5985 20.0745 14.0031 19.9536 14.3925 19.9536C15.0109 19.9536 15.553 20.2483 15.8431 20.7394C16.2707 21.4647 16.0874 22.5527 14.9117 23.2251L5.43682 28.4156L12.8274 30.5084C12.919 30.5311 12.9953 30.584 13.0564 30.652C13.1709 30.7804 13.2015 30.9693 13.1328 31.128V31.1355C13.0869 31.2488 12.9953 31.3395 12.8808 31.3848L10.2926 32.4653L10.1704 32.4955L10.0177 32.4879ZM24.8446 32.4879L24.7225 32.4577L22.1419 31.3848C22.0503 31.3471 21.9739 31.2791 21.9205 31.1884C21.8288 31.0297 21.8365 30.8333 21.9434 30.6822L21.951 30.6671C22.0121 30.584 22.1037 30.5235 22.203 30.4933L29.5706 28.408L20.0957 23.2175C18.92 22.5451 18.7367 21.4571 19.1567 20.7318C19.4468 20.2407 19.9889 19.9461 20.6073 19.9461C21.0043 19.9461 21.4013 20.0594 21.7983 20.2861L31.0899 25.8015L29.2347 18.435C29.2118 18.3443 29.2194 18.2537 29.2499 18.163C29.311 17.9968 29.4561 17.8835 29.6317 17.8608H29.6469C29.7691 17.8457 29.8836 17.8759 29.9829 17.9515L32.2122 19.6212L32.2962 19.7119L32.3573 19.8403L34.8081 28.2418L34.9684 28.8236C35.0371 29.1334 34.9913 29.428 34.8539 29.6773C34.7088 29.9191 34.4722 30.108 34.1897 30.1987L33.5865 30.3573L24.9973 32.4728L24.8752 32.4804L24.8446 32.4879Z" fill="white"/>
</svg>
